<?xml version="1.0" standalone="no"?>
<!DOCTYPE svg PUBLIC "-//W3C//DTD SVG 20010904//EN"
 "http://www.w3.org/TR/2001/REC-SVG-20010904/DTD/svg10.dtd">
<svg version="1.0" xmlns="http://www.w3.org/2000/svg"
 width="115.000000pt" height="116.000000pt" viewBox="0 0 115.000000 116.000000"
 preserveAspectRatio="xMidYMid meet">

<g transform="translate(0.000000,116.000000) scale(0.100000,-0.100000)"
fill="#000000" stroke="none">
<path d="M149 1003 c-11 -13 -14 -87 -14 -382 0 -341 1 -368 19 -397 39 -65
30 -64 496 -64 l422 0 -6 27 c-4 16 -18 55 -31 88 -89 222 -155 397 -155 413
0 10 31 71 70 134 38 64 70 127 70 141 0 35 -25 57 -66 57 -37 0 -28 11 -155
-190 -46 -74 -53 -92 -53 -135 0 -30 9 -70 22 -100 13 -27 47 -106 76 -175
l54 -125 -302 -3 c-297 -2 -301 -2 -319 19 -15 19 -17 52 -17 355 0 319 -1
334 -19 344 -30 15 -77 12 -92 -7z"/>
<path d="M367 1002 c-15 -16 -17 -51 -17 -281 0 -206 3 -268 14 -289 70 -135
264 -131 322 6 11 27 14 92 14 292 0 240 -1 258 -19 274 -13 12 -32 16 -57 14
-61 -5 -64 -18 -64 -294 0 -202 -2 -244 -15 -254 -12 -10 -20 -9 -40 4 l-25
16 0 250 c0 213 -2 251 -16 264 -21 22 -77 20 -97 -2z"/>
</g>
</svg>
